<svg class="sauna-path" xmlns="http://www.w3.org/2000/svg" xmlns:xlink="http://www.w3.org/1999/xlink" width="500" zoomAndPan="magnify" viewBox="0 0 375 374.999991" height="500" preserveAspectRatio="xMidYMid meet" version="1.0"><defs><g/></defs><g fill="#bf2b27" fill-opacity="1"><g transform="translate(126.840479, 177.568049)"><g><path d="M 10.375 0.53125 C 8.707031 0.53125 7.148438 0.15625 5.703125 -0.59375 C 5.046875 -0.925781 4.492188 -1.316406 4.046875 -1.765625 C 3.710938 -1.222656 3.300781 -0.738281 2.8125 -0.3125 C 2.394531 -0.0078125 2.160156 0.148438 2.109375 0.171875 L 1.234375 0.171875 L 1.234375 -6.515625 L 2.640625 -6.515625 C 2.992188 -5.359375 3.484375 -4.320312 4.109375 -3.40625 C 5.546875 -1.375 7.398438 -0.359375 9.671875 -0.359375 C 11.015625 -0.359375 12.082031 -0.753906 12.875 -1.546875 C 13.675781 -2.347656 14.078125 -3.414062 14.078125 -4.75 C 14.078125 -5.519531 13.847656 -6.207031 13.390625 -6.8125 C 12.929688 -7.425781 12.359375 -7.96875 11.671875 -8.4375 C 10.992188 -8.914062 10.046875 -9.503906 8.828125 -10.203125 C 7.285156 -11.066406 6.03125 -11.851562 5.0625 -12.5625 C 4.101562 -13.269531 3.28125 -14.15625 2.59375 -15.21875 C 1.914062 -16.28125 1.578125 -17.539062 1.578125 -19 C 1.578125 -20.144531 1.898438 -21.179688 2.546875 -22.109375 C 3.191406 -23.035156 4.160156 -23.773438 5.453125 -24.328125 C 6.742188 -24.878906 8.328125 -25.15625 10.203125 -25.15625 C 11.566406 -25.15625 12.925781 -24.769531 14.28125 -24 C 14.800781 -23.71875 15.316406 -23.34375 15.828125 -22.875 C 16.234375 -23.476562 16.644531 -23.957031 17.0625 -24.3125 C 17.488281 -24.613281 17.722656 -24.78125 17.765625 -24.8125 L 18.65625 -24.8125 L 18.65625 -18.125 L 17.234375 -18.125 C 16.929688 -19.25 16.476562 -20.269531 15.875 -21.1875 C 15.3125 -22.070312 14.613281 -22.804688 13.78125 -23.390625 C 12.945312 -23.984375 11.988281 -24.28125 10.90625 -24.28125 C 9.988281 -24.28125 9.203125 -23.914062 8.546875 -23.1875 C 7.890625 -22.457031 7.5625 -21.53125 7.5625 -20.40625 C 7.5625 -19.539062 7.8125 -18.757812 8.3125 -18.0625 C 8.820312 -17.375 9.445312 -16.769531 10.1875 -16.25 C 10.925781 -15.738281 11.925781 -15.117188 13.1875 -14.390625 C 14.664062 -13.546875 15.863281 -12.796875 16.78125 -12.140625 C 17.695312 -11.484375 18.472656 -10.664062 19.109375 -9.6875 C 19.742188 -8.71875 20.0625 -7.597656 20.0625 -6.328125 C 20.0625 -5.066406 19.695312 -3.910156 18.96875 -2.859375 C 18.238281 -1.816406 17.144531 -0.988281 15.6875 -0.375 C 14.238281 0.226562 12.46875 0.53125 10.375 0.53125 Z M 10.375 0.53125 "/></g></g></g><g fill="#bf2b27" fill-opacity="1"><g transform="translate(147.457841, 177.568049)"><g><path d="M 8.265625 0.53125 C 6.179688 0.53125 4.578125 0.0859375 3.453125 -0.796875 C 2.328125 -1.691406 1.765625 -2.832031 1.765625 -4.21875 C 1.765625 -5.132812 1.960938 -6.039062 2.359375 -6.9375 C 2.523438 -7.351562 2.734375 -7.738281 2.984375 -8.09375 C 3.953125 -8.320312 5 -8.53125 6.125 -8.71875 C 8.65625 -9.144531 10.894531 -9.40625 12.84375 -9.5 L 12.84375 -10.5625 C 12.84375 -13.164062 12.523438 -14.957031 11.890625 -15.9375 C 11.253906 -16.925781 10.28125 -17.421875 8.96875 -17.421875 C 8.476562 -17.421875 8.054688 -17.359375 7.703125 -17.234375 L 7.21875 -17.0625 L 7.21875 -11.78125 L 6.75 -11.6875 C 6.375 -11.632812 6.0625 -11.609375 5.8125 -11.609375 C 5.007812 -11.609375 4.367188 -11.847656 3.890625 -12.328125 C 3.410156 -12.804688 3.171875 -13.445312 3.171875 -14.25 C 3.171875 -15.332031 3.710938 -16.25 4.796875 -17 C 5.890625 -17.75 7.515625 -18.125 9.671875 -18.125 C 11.503906 -18.125 13.082031 -17.800781 14.40625 -17.15625 C 15.726562 -16.507812 16.734375 -15.613281 17.421875 -14.46875 C 18.117188 -13.332031 18.46875 -12.03125 18.46875 -10.5625 L 18.46875 -1.0625 L 20.578125 -0.53125 L 20.578125 0 L 17.421875 0 C 16.015625 0 14.921875 -0.429688 14.140625 -1.296875 C 13.816406 -1.648438 13.5625 -2.097656 13.375 -2.640625 C 13.039062 -2.054688 12.648438 -1.53125 12.203125 -1.0625 C 11.148438 0 9.835938 0.53125 8.265625 0.53125 Z M 9.671875 -0.703125 C 10.546875 -0.703125 11.332031 -1.171875 12.03125 -2.109375 C 12.289062 -2.460938 12.5625 -2.929688 12.84375 -3.515625 L 12.84375 -8.625 C 11.757812 -8.625 10.726562 -8.5625 9.75 -8.4375 C 9.019531 -8.34375 8.523438 -8.285156 8.265625 -8.265625 C 8.148438 -8.003906 8.035156 -7.65625 7.921875 -7.21875 C 7.679688 -6.320312 7.5625 -5.441406 7.5625 -4.578125 C 7.5625 -3.265625 7.757812 -2.289062 8.15625 -1.65625 C 8.5625 -1.019531 9.066406 -0.703125 9.671875 -0.703125 Z M 9.671875 -0.703125 "/></g></g></g><g fill="#bf2b27" fill-opacity="1"><g transform="translate(168.427031, 177.568049)"><g><path d="M 9.859375 0.53125 C 8.535156 0.53125 7.351562 0.253906 6.3125 -0.296875 C 5.269531 -0.847656 4.453125 -1.566406 3.859375 -2.453125 C 3.273438 -3.347656 2.984375 -4.289062 2.984375 -5.28125 L 2.984375 -16.53125 L 0.875 -17.0625 L 0.875 -17.59375 L 5.453125 -17.59375 C 7.566406 -17.59375 8.625 -16.535156 8.625 -14.421875 L 8.625 -5.28125 C 8.625 -3.800781 8.882812 -2.664062 9.40625 -1.875 C 9.9375 -1.09375 10.554688 -0.703125 11.265625 -0.703125 C 12.128906 -0.703125 12.914062 -1.171875 13.625 -2.109375 C 13.875 -2.460938 14.140625 -2.929688 14.421875 -3.515625 L 14.421875 -16.53125 L 12.3125 -17.0625 L 12.3125 -17.59375 L 22.171875 -17.59375 L 22.171875 -17.0625 L 20.0625 -16.53125 L 20.0625 0.171875 L 19.703125 0.171875 C 17.992188 0.171875 16.691406 -0.296875 15.796875 -1.234375 C 15.398438 -1.648438 15.117188 -2.117188 14.953125 -2.640625 C 14.628906 -2.054688 14.242188 -1.53125 13.796875 -1.0625 C 12.734375 0 11.421875 0.53125 9.859375 0.53125 Z M 9.859375 0.53125 "/></g></g></g><g fill="#bf2b27" fill-opacity="1"><g transform="translate(190.97947, 177.568049)"><g><path d="M 1.40625 -0.53125 L 3.515625 -1.0625 L 3.515625 -16.53125 L 1.40625 -17.0625 L 1.40625 -17.59375 L 4.578125 -17.59375 C 5.960938 -17.59375 7.050781 -17.144531 7.84375 -16.25 C 8.144531 -15.90625 8.40625 -15.472656 8.625 -14.953125 C 8.945312 -15.566406 9.332031 -16.09375 9.78125 -16.53125 C 10.832031 -17.59375 12.144531 -18.125 13.71875 -18.125 C 15.03125 -18.125 16.207031 -17.847656 17.25 -17.296875 C 18.300781 -16.742188 19.117188 -16.019531 19.703125 -15.125 C 20.285156 -14.238281 20.578125 -13.300781 20.578125 -12.3125 L 20.578125 -1.0625 L 22.703125 -0.53125 L 22.703125 0 L 18.125 0 C 16.007812 0 14.953125 -1.054688 14.953125 -3.171875 L 14.953125 -12.3125 C 14.953125 -13.789062 14.6875 -14.921875 14.15625 -15.703125 C 13.632812 -16.492188 13.019531 -16.890625 12.3125 -16.890625 C 11.425781 -16.890625 10.628906 -16.421875 9.921875 -15.484375 C 9.617188 -15.085938 9.363281 -14.617188 9.15625 -14.078125 L 9.15625 -1.0625 L 11.265625 -0.53125 L 11.265625 0 L 1.40625 0 Z M 1.40625 -0.53125 "/></g></g></g><g fill="#bf2b27" fill-opacity="1"><g transform="translate(214.059655, 177.568049)"><g><path d="M 8.265625 0.53125 C 6.179688 0.53125 4.578125 0.0859375 3.453125 -0.796875 C 2.328125 -1.691406 1.765625 -2.832031 1.765625 -4.21875 C 1.765625 -5.132812 1.960938 -6.039062 2.359375 -6.9375 C 2.523438 -7.351562 2.734375 -7.738281 2.984375 -8.09375 C 3.953125 -8.320312 5 -8.53125 6.125 -8.71875 C 8.65625 -9.144531 10.894531 -9.40625 12.84375 -9.5 L 12.84375 -10.5625 C 12.84375 -13.164062 12.523438 -14.957031 11.890625 -15.9375 C 11.253906 -16.925781 10.28125 -17.421875 8.96875 -17.421875 C 8.476562 -17.421875 8.054688 -17.359375 7.703125 -17.234375 L 7.21875 -17.0625 L 7.21875 -11.78125 L 6.75 -11.6875 C 6.375 -11.632812 6.0625 -11.609375 5.8125 -11.609375 C 5.007812 -11.609375 4.367188 -11.847656 3.890625 -12.328125 C 3.410156 -12.804688 3.171875 -13.445312 3.171875 -14.25 C 3.171875 -15.332031 3.710938 -16.25 4.796875 -17 C 5.890625 -17.75 7.515625 -18.125 9.671875 -18.125 C 11.503906 -18.125 13.082031 -17.800781 14.40625 -17.15625 C 15.726562 -16.507812 16.734375 -15.613281 17.421875 -14.46875 C 18.117188 -13.332031 18.46875 -12.03125 18.46875 -10.5625 L 18.46875 -1.0625 L 20.578125 -0.53125 L 20.578125 0 L 17.421875 0 C 16.015625 0 14.921875 -0.429688 14.140625 -1.296875 C 13.816406 -1.648438 13.5625 -2.097656 13.375 -2.640625 C 13.039062 -2.054688 12.648438 -1.53125 12.203125 -1.0625 C 11.148438 0 9.835938 0.53125 8.265625 0.53125 Z M 9.671875 -0.703125 C 10.546875 -0.703125 11.332031 -1.171875 12.03125 -2.109375 C 12.289062 -2.460938 12.5625 -2.929688 12.84375 -3.515625 L 12.84375 -8.625 C 11.757812 -8.625 10.726562 -8.5625 9.75 -8.4375 C 9.019531 -8.34375 8.523438 -8.285156 8.265625 -8.265625 C 8.148438 -8.003906 8.035156 -7.65625 7.921875 -7.21875 C 7.679688 -6.320312 7.5625 -5.441406 7.5625 -4.578125 C 7.5625 -3.265625 7.757812 -2.289062 8.15625 -1.65625 C 8.5625 -1.019531 9.066406 -0.703125 9.671875 -0.703125 Z M 9.671875 -0.703125 "/></g></g></g><g fill="#bf2b27" fill-opacity="1"><g transform="translate(126.840479, 209.853802)"><g/></g></g><g fill="#bf2b27" fill-opacity="1"><g transform="translate(136.375132, 209.853802)"><g/></g></g><g fill="#bf2b27" fill-opacity="1"><g transform="translate(145.909784, 209.853802)"><g/></g></g><g fill="#bf2b27" fill-opacity="1"><g transform="translate(155.444437, 209.853802)"><g/></g></g><g fill="#bf2b27" fill-opacity="1"><g transform="translate(164.97909, 209.853802)"><g/></g></g><g fill="#bf2b27" fill-opacity="1"><g transform="translate(174.518878, 209.853802)"><g><path d="M 1.765625 -0.53125 L 3.875 -1.0625 L 3.875 -23.578125 L 1.765625 -24.109375 L 1.765625 -24.625 L 11.78125 -24.625 L 11.78125 -24.109375 L 9.671875 -23.578125 L 9.671875 -0.875 L 17.234375 -0.875 C 17.234375 -2.351562 17.613281 -3.726562 18.375 -5 C 18.695312 -5.539062 19.082031 -5.984375 19.53125 -6.328125 L 20.578125 -6.328125 L 20.578125 0 L 1.765625 0 Z M 1.765625 -0.53125 "/></g></g></g><g fill="#bf2b27" fill-opacity="1"><g transform="translate(195.663986, 209.853802)"><g><path d="M 10.734375 0.53125 C 7.828125 0.53125 5.546875 -0.296875 3.890625 -1.953125 C 2.234375 -3.609375 1.40625 -5.890625 1.40625 -8.796875 C 1.40625 -11.703125 2.234375 -13.984375 3.890625 -15.640625 C 5.546875 -17.296875 7.828125 -18.125 10.734375 -18.125 C 13.640625 -18.125 15.921875 -17.296875 17.578125 -15.640625 C 19.234375 -13.984375 20.0625 -11.703125 20.0625 -8.796875 C 20.0625 -5.890625 19.234375 -3.609375 17.578125 -1.953125 C 15.921875 -0.296875 13.640625 0.53125 10.734375 0.53125 Z M 10.734375 -0.171875 C 11.671875 -0.171875 12.460938 -0.828125 13.109375 -2.140625 C 13.753906 -3.453125 14.078125 -5.671875 14.078125 -8.796875 C 14.078125 -11.921875 13.753906 -14.140625 13.109375 -15.453125 C 12.460938 -16.765625 11.671875 -17.421875 10.734375 -17.421875 C 9.796875 -17.421875 9.003906 -16.765625 8.359375 -15.453125 C 7.710938 -14.140625 7.390625 -11.921875 7.390625 -8.796875 C 7.390625 -5.671875 7.710938 -3.453125 8.359375 -2.140625 C 9.003906 -0.828125 9.796875 -0.171875 10.734375 -0.171875 Z M 10.734375 -0.171875 "/></g></g></g><g fill="#bf2b27" fill-opacity="1"><g transform="translate(216.809093, 209.853802)"><g><path d="M 9.671875 7.5625 C 7.585938 7.5625 5.890625 7.375 4.578125 7 C 3.265625 6.625 2.316406 6.144531 1.734375 5.5625 C 1.160156 4.976562 0.875 4.351562 0.875 3.6875 C 0.875 2.894531 1.113281 2.257812 1.59375 1.78125 C 2.082031 1.300781 2.722656 1.0625 3.515625 1.0625 C 3.703125 1.0625 4.046875 1.09375 4.546875 1.15625 L 4.921875 1.234375 L 4.921875 6.15625 C 5.203125 6.25 5.648438 6.367188 6.265625 6.515625 C 7.335938 6.742188 8.359375 6.859375 9.328125 6.859375 C 12.191406 6.859375 14.285156 6.453125 15.609375 5.640625 C 16.929688 4.835938 17.59375 3.835938 17.59375 2.640625 C 17.59375 1.117188 16.1875 0.359375 13.375 0.359375 L 6.6875 0.359375 C 4.925781 0.359375 3.578125 -0.00390625 2.640625 -0.734375 C 1.703125 -1.460938 1.234375 -2.390625 1.234375 -3.515625 C 1.234375 -4.640625 1.785156 -5.640625 2.890625 -6.515625 C 3.328125 -6.835938 3.890625 -7.128906 4.578125 -7.390625 C 3.703125 -7.929688 3.070312 -8.570312 2.6875 -9.3125 C 2.300781 -10.050781 2.109375 -10.9375 2.109375 -11.96875 C 2.109375 -13.695312 2.765625 -15.09375 4.078125 -16.15625 C 5.390625 -17.226562 7.316406 -17.765625 9.859375 -17.765625 C 10.953125 -17.765625 11.960938 -17.648438 12.890625 -17.421875 C 13.816406 -17.203125 14.5625 -16.90625 15.125 -16.53125 C 15.3125 -16.9375 15.5625 -17.289062 15.875 -17.59375 C 16.570312 -18.300781 17.4375 -18.65625 18.46875 -18.65625 C 19.269531 -18.65625 19.9375 -18.378906 20.46875 -17.828125 C 21.007812 -17.273438 21.28125 -16.550781 21.28125 -15.65625 C 21.28125 -14.976562 21.097656 -14.425781 20.734375 -14 C 20.378906 -13.582031 19.921875 -13.375 19.359375 -13.375 C 19.097656 -13.375 18.800781 -13.394531 18.46875 -13.4375 L 18.125 -13.546875 L 18.125 -17.765625 C 17.507812 -17.765625 16.929688 -17.472656 16.390625 -16.890625 C 16.179688 -16.679688 15.992188 -16.390625 15.828125 -16.015625 C 17.003906 -14.984375 17.59375 -13.632812 17.59375 -11.96875 C 17.59375 -10.226562 16.9375 -8.820312 15.625 -7.75 C 14.3125 -6.6875 12.390625 -6.15625 9.859375 -6.15625 C 8.160156 -6.15625 6.632812 -6.445312 5.28125 -7.03125 L 4.578125 -6.6875 C 4.335938 -6.539062 4.160156 -6.40625 4.046875 -6.28125 C 3.929688 -6.15625 3.875 -6 3.875 -5.8125 C 3.875 -5.40625 4.078125 -5.097656 4.484375 -4.890625 C 4.898438 -4.679688 5.632812 -4.578125 6.6875 -4.578125 L 13.375 -4.578125 C 15.132812 -4.578125 16.507812 -4.066406 17.5 -3.046875 C 18.5 -2.023438 19 -0.597656 19 1.234375 C 19 3.109375 18.21875 4.628906 16.65625 5.796875 C 15.101562 6.972656 12.773438 7.5625 9.671875 7.5625 Z M 9.859375 -6.859375 C 10.628906 -6.859375 11.226562 -7.234375 11.65625 -7.984375 C 12.09375 -8.734375 12.3125 -10.0625 12.3125 -11.96875 C 12.3125 -13.863281 12.09375 -15.1875 11.65625 -15.9375 C 11.226562 -16.6875 10.628906 -17.0625 9.859375 -17.0625 C 9.078125 -17.0625 8.46875 -16.6875 8.03125 -15.9375 C 7.601562 -15.1875 7.390625 -13.863281 7.390625 -11.96875 C 7.390625 -10.0625 7.601562 -8.734375 8.03125 -7.984375 C 8.46875 -7.234375 9.078125 -6.859375 9.859375 -6.859375 Z M 9.859375 -6.859375 "/></g></g></g><g fill="#000000" fill-opacity="1"><g transform="translate(132.48744, 228.029818)"><g><path d="M 6.203125 0 L 5.265625 -4.265625 L 3.453125 0.359375 L 1.65625 -4.265625 L 0.71875 0 L 0.09375 0 L 1.484375 -6.40625 L 3.453125 -1.265625 L 5.421875 -6.40625 L 6.828125 0 Z M 6.203125 0 "/></g></g></g><g fill="#000000" fill-opacity="1"><g transform="translate(140.761476, 228.029818)"><g><path d="M 2.984375 -2.828125 L 2.984375 0 L 2.359375 0 L 2.359375 -2.828125 L 0.09375 -6 L 0.890625 -6 L 2.671875 -3.4375 L 4.46875 -6 L 5.25 -6 Z M 2.984375 -2.828125 "/></g></g></g><g fill="#000000" fill-opacity="1"><g transform="translate(147.463708, 228.029818)"><g/></g></g><g fill="#000000" fill-opacity="1"><g transform="translate(151.207767, 228.029818)"><g><path d="M 4.234375 -5.421875 L 1.28125 -5.421875 L 1.28125 -3.296875 L 4.140625 -3.296875 L 4.140625 -2.703125 L 1.28125 -2.703125 L 1.28125 0 L 0.65625 0 L 0.65625 -6 L 4.234375 -6 Z M 4.234375 -5.421875 "/></g></g></g><g fill="#000000" fill-opacity="1"><g transform="translate(156.973974, 228.029818)"><g><path d="M 1.640625 -2.203125 L 3.8125 -2.203125 L 2.734375 -4.96875 Z M 5.359375 0 L 4.6875 0 L 4.046875 -1.640625 L 1.40625 -1.640625 L 0.765625 0 L 0.09375 0 L 2.734375 -6.421875 Z M 5.359375 0 "/></g></g></g><g fill="#000000" fill-opacity="1"><g transform="translate(163.782168, 228.029818)"><g><path d="M 2.8125 0.359375 L 0.09375 -6 L 0.765625 -6 L 2.8125 -1.171875 L 4.859375 -6 L 5.53125 -6 Z M 2.8125 0.359375 "/></g></g></g><g fill="#000000" fill-opacity="1"><g transform="translate(170.766971, 228.029818)"><g><path d="M 5.953125 -3.015625 C 5.953125 -3.691406 5.707031 -4.273438 5.21875 -4.765625 C 4.738281 -5.242188 4.160156 -5.484375 3.484375 -5.484375 C 2.804688 -5.484375 2.222656 -5.242188 1.734375 -4.765625 C 1.253906 -4.273438 1.015625 -3.691406 1.015625 -3.015625 C 1.015625 -2.335938 1.253906 -1.753906 1.734375 -1.265625 C 2.222656 -0.785156 2.804688 -0.546875 3.484375 -0.546875 C 4.160156 -0.546875 4.738281 -0.785156 5.21875 -1.265625 C 5.707031 -1.753906 5.953125 -2.335938 5.953125 -3.015625 Z M 6.5625 -3.015625 C 6.5625 -2.597656 6.484375 -2.195312 6.328125 -1.8125 C 6.160156 -1.4375 5.941406 -1.113281 5.671875 -0.84375 C 5.390625 -0.5625 5.054688 -0.335938 4.671875 -0.171875 C 4.296875 -0.00390625 3.898438 0.078125 3.484375 0.078125 C 3.054688 0.078125 2.65625 -0.00390625 2.28125 -0.171875 C 1.90625 -0.335938 1.582031 -0.5625 1.3125 -0.84375 C 1.03125 -1.113281 0.804688 -1.4375 0.640625 -1.8125 C 0.472656 -2.195312 0.390625 -2.597656 0.390625 -3.015625 C 0.390625 -3.441406 0.472656 -3.84375 0.640625 -4.21875 C 0.804688 -4.59375 1.03125 -4.921875 1.3125 -5.203125 C 1.582031 -5.472656 1.90625 -5.691406 2.28125 -5.859375 C 2.65625 -6.015625 3.054688 -6.09375 3.484375 -6.09375 C 3.898438 -6.09375 4.296875 -6.015625 4.671875 -5.859375 C 5.054688 -5.691406 5.390625 -5.472656 5.671875 -5.203125 C 5.941406 -4.921875 6.160156 -4.59375 6.328125 -4.21875 C 6.484375 -3.84375 6.5625 -3.441406 6.5625 -3.015625 Z M 6.5625 -3.015625 "/></g></g></g><g fill="#000000" fill-opacity="1"><g transform="translate(179.093982, 228.029818)"><g><path d="M 1.28125 -2.96875 L 2.671875 -2.96875 C 3.023438 -2.96875 3.3125 -3.082031 3.53125 -3.3125 C 3.757812 -3.5625 3.875 -3.863281 3.875 -4.21875 C 3.875 -4.5625 3.765625 -4.847656 3.546875 -5.078125 C 3.328125 -5.296875 3.035156 -5.40625 2.671875 -5.40625 L 1.28125 -5.40625 Z M 4.5 -4.1875 C 4.5 -3.664062 4.3125 -3.234375 3.9375 -2.890625 C 3.601562 -2.578125 3.207031 -2.410156 2.75 -2.390625 L 4.59375 0 L 3.765625 0 L 2 -2.375 L 1.28125 -2.375 L 1.28125 0 L 0.65625 0 L 0.65625 -6 L 2.59375 -6 C 3.125 -6 3.570312 -5.832031 3.9375 -5.5 C 4.3125 -5.144531 4.5 -4.707031 4.5 -4.1875 Z M 4.5 -4.1875 "/></g></g></g><g fill="#000000" fill-opacity="1"><g transform="translate(185.257559, 228.029818)"><g><path d="M 1.28125 0 L 0.65625 0 L 0.65625 -6 L 1.28125 -6 Z M 1.28125 0 "/></g></g></g><g fill="#000000" fill-opacity="1"><g transform="translate(188.560099, 228.029818)"><g><path d="M 0.171875 -5.453125 L 0.171875 -6.015625 L 3.703125 -6.015625 L 3.703125 -5.453125 L 2.25 -5.453125 L 2.25 -0.015625 L 1.640625 -0.015625 L 1.640625 -5.453125 Z M 0.171875 -5.453125 "/></g></g></g><g fill="#000000" fill-opacity="1"><g transform="translate(193.805324, 228.029818)"><g><path d="M 4.234375 0 L 0.65625 0 L 0.65625 -6 L 4.234375 -6 L 4.234375 -5.421875 L 1.28125 -5.421875 L 1.28125 -3.296875 L 4.140625 -3.296875 L 4.140625 -2.703125 L 1.28125 -2.703125 L 1.28125 -0.578125 L 4.234375 -0.578125 Z M 4.234375 0 "/></g></g></g><g fill="#000000" fill-opacity="1"><g transform="translate(200.0572, 228.029818)"><g/></g></g><g fill="#000000" fill-opacity="1"><g transform="translate(203.801259, 228.029818)"><g><path d="M 2.328125 -2.828125 C 1.109375 -3.109375 0.5 -3.632812 0.5 -4.40625 C 0.5 -4.96875 0.691406 -5.390625 1.078125 -5.671875 C 1.472656 -5.953125 1.9375 -6.09375 2.46875 -6.09375 C 3.644531 -6.09375 4.34375 -5.65625 4.5625 -4.78125 L 3.890625 -4.78125 C 3.765625 -5.300781 3.289062 -5.5625 2.46875 -5.5625 C 1.894531 -5.5625 1.492188 -5.390625 1.265625 -5.046875 C 1.171875 -4.921875 1.125 -4.757812 1.125 -4.5625 C 1.125 -4.195312 1.328125 -3.910156 1.734375 -3.703125 C 1.921875 -3.609375 2.320312 -3.476562 2.9375 -3.3125 C 3.539062 -3.15625 3.984375 -2.984375 4.265625 -2.796875 C 4.648438 -2.523438 4.84375 -2.144531 4.84375 -1.65625 C 4.84375 -1.039062 4.601562 -0.582031 4.125 -0.28125 C 3.71875 -0.0195312 3.222656 0.109375 2.640625 0.109375 C 1.304688 0.109375 0.535156 -0.394531 0.328125 -1.40625 L 1.0625 -1.40625 C 1.175781 -0.769531 1.703125 -0.453125 2.640625 -0.453125 C 3.304688 -0.453125 3.773438 -0.632812 4.046875 -1 C 4.148438 -1.15625 4.203125 -1.359375 4.203125 -1.609375 C 4.203125 -1.859375 4.101562 -2.0625 3.90625 -2.21875 C 3.632812 -2.4375 3.109375 -2.640625 2.328125 -2.828125 Z M 2.328125 -2.828125 "/></g></g></g><g fill="#000000" fill-opacity="1"><g transform="translate(210.229745, 228.029818)"><g><path d="M 1.640625 -2.203125 L 3.8125 -2.203125 L 2.734375 -4.96875 Z M 5.359375 0 L 4.6875 0 L 4.046875 -1.640625 L 1.40625 -1.640625 L 0.765625 0 L 0.09375 0 L 2.734375 -6.421875 Z M 5.359375 0 "/></g></g></g><g fill="#000000" fill-opacity="1"><g transform="translate(217.037939, 228.029818)"><g><path d="M 5 -1.984375 C 5 -1.335938 4.789062 -0.828125 4.375 -0.453125 C 3.96875 -0.0976562 3.429688 0.078125 2.765625 0.078125 C 2.097656 0.078125 1.566406 -0.0976562 1.171875 -0.453125 C 0.742188 -0.828125 0.53125 -1.335938 0.53125 -1.984375 L 0.53125 -6 L 1.140625 -6 L 1.140625 -1.890625 C 1.140625 -1.441406 1.304688 -1.097656 1.640625 -0.859375 C 1.921875 -0.640625 2.296875 -0.53125 2.765625 -0.53125 C 3.503906 -0.53125 4 -0.78125 4.25 -1.28125 C 4.34375 -1.445312 4.390625 -1.648438 4.390625 -1.890625 L 4.390625 -6 L 5 -6 Z M 5 -1.984375 "/></g></g></g><g fill="#000000" fill-opacity="1"><g transform="translate(223.934431, 228.029818)"><g><path d="M 1.28125 -4.421875 L 1.28125 0 L 0.65625 0 L 0.65625 -6.375 L 4.03125 -1.59375 L 4.03125 -6 L 4.65625 -6 L 4.65625 0.375 Z M 1.28125 -4.421875 "/></g></g></g><g fill="#000000" fill-opacity="1"><g transform="translate(230.610164, 228.029818)"><g><path d="M 1.640625 -2.203125 L 3.8125 -2.203125 L 2.734375 -4.96875 Z M 5.359375 0 L 4.6875 0 L 4.046875 -1.640625 L 1.40625 -1.640625 L 0.765625 0 L 0.09375 0 L 2.734375 -6.421875 Z M 5.359375 0 "/></g></g></g><g fill="#000000" fill-opacity="1"><g transform="translate(237.418363, 228.029818)"><g><path d="M 2.328125 -2.828125 C 1.109375 -3.109375 0.5 -3.632812 0.5 -4.40625 C 0.5 -4.96875 0.691406 -5.390625 1.078125 -5.671875 C 1.472656 -5.953125 1.9375 -6.09375 2.46875 -6.09375 C 3.644531 -6.09375 4.34375 -5.65625 4.5625 -4.78125 L 3.890625 -4.78125 C 3.765625 -5.300781 3.289062 -5.5625 2.46875 -5.5625 C 1.894531 -5.5625 1.492188 -5.390625 1.265625 -5.046875 C 1.171875 -4.921875 1.125 -4.757812 1.125 -4.5625 C 1.125 -4.195312 1.328125 -3.910156 1.734375 -3.703125 C 1.921875 -3.609375 2.320312 -3.476562 2.9375 -3.3125 C 3.539062 -3.15625 3.984375 -2.984375 4.265625 -2.796875 C 4.648438 -2.523438 4.84375 -2.144531 4.84375 -1.65625 C 4.84375 -1.039062 4.601562 -0.582031 4.125 -0.28125 C 3.71875 -0.0195312 3.222656 0.109375 2.640625 0.109375 C 1.304688 0.109375 0.535156 -0.394531 0.328125 -1.40625 L 1.0625 -1.40625 C 1.175781 -0.769531 1.703125 -0.453125 2.640625 -0.453125 C 3.304688 -0.453125 3.773438 -0.632812 4.046875 -1 C 4.148438 -1.15625 4.203125 -1.359375 4.203125 -1.609375 C 4.203125 -1.859375 4.101562 -2.0625 3.90625 -2.21875 C 3.632812 -2.4375 3.109375 -2.640625 2.328125 -2.828125 Z M 2.328125 -2.828125 "/></g></g></g></svg>